<svg xmlns="http://www.w3.org/2000/svg" width="20" height="20" fill="none" viewBox="0 0 20 20">
    <path fill="#000" d="M7.988 17.958v2.03l-.49-.396c-.075-.061-1.876-1.527-3.702-3.628C1.277 13.064 0 10.462 0 8.229v-.221C0 3.592 3.584 0 7.988 0c4.405 0 7.989 3.592 7.989 8.008v.221c0 .188-.01.378-.028.57l-1.563-1.428c-.32-3.256-3.067-5.809-6.398-5.809-3.545 0-6.43 2.892-6.43 6.446v.221c0 3.774 4.85 8.342 6.43 9.73zm4.793-1.122h2.338v-2.344h-2.338v2.344zM7.988 4.688c1.827 0 3.312 1.489 3.312 3.32 0 1.83-1.485 3.32-3.312 3.32-1.826 0-3.312-1.49-3.312-3.32 0-1.831 1.486-3.32 3.312-3.32zm0 1.562c-.967 0-1.753.789-1.753 1.758s.786 1.758 1.753 1.758c.967 0 1.754-.789 1.754-1.758 0-.97-.787-1.758-1.754-1.758zm10.962 9.524l-.439-.4v2.508c0 1.168-.948 2.118-2.113 2.118h-4.935c-1.165 0-2.113-.95-2.113-2.118v-2.509l-.438.401-1.05-1.154 6.069-5.55L20 14.62l-1.05 1.154zm-1.997-1.826l-3.022-2.764-3.022 2.764v3.934c0 .306.248.555.554.555h4.935c.306 0 .555-.249.555-.555v-3.934z"/>
</svg>
