<?xml version="1.0" encoding="utf-8"?>
<!-- Generator: Adobe Illustrator 23.0.0, SVG Export Plug-In . SVG Version: 6.00 Build 0)  -->
<svg version="1.1" id="Capa_1" xmlns="http://www.w3.org/2000/svg" xmlns:xlink="http://www.w3.org/1999/xlink" x="0px" y="0px"
	 viewBox="0 0 16 18" style="enable-background:new 0 0 16 18;" xml:space="preserve">
<g>
	<path d="M10.7,13.5h1.4c0.2,0,0.4-0.2,0.4-0.4v-1.4c0-0.2-0.2-0.4-0.4-0.4h-1.4c-0.2,0-0.4,0.2-0.4,0.4v1.4
		C10.3,13.3,10.5,13.5,10.7,13.5z"/>
	<path d="M7.3,13.5h1.4c0.2,0,0.4-0.2,0.4-0.4v-1.4c0-0.2-0.2-0.4-0.4-0.4H7.3c-0.2,0-0.4,0.2-0.4,0.4v1.4C6.9,13.3,7,13.5,7.3,13.5
		z"/>
	<path d="M7.3,10.1h1.4c0.2,0,0.4-0.2,0.4-0.4V8.3c0-0.2-0.2-0.4-0.4-0.4H7.3C7,7.9,6.9,8.1,6.9,8.3v1.4C6.9,9.9,7,10.1,7.3,10.1z"
		/>
	<path d="M3.9,10.1h1.4c0.2,0,0.4-0.2,0.4-0.4V8.3c0-0.2-0.2-0.4-0.4-0.4H3.9c-0.2,0-0.4,0.2-0.4,0.4v1.4C3.4,9.9,3.6,10.1,3.9,10.1
		z"/>
	<path d="M14.3,2.3h-1.7V0.4c0-0.2-0.2-0.4-0.4-0.4h-1.4c-0.2,0-0.4,0.2-0.4,0.4v1.8H5.7V0.4C5.7,0.2,5.5,0,5.3,0H3.9
		C3.6,0,3.4,0.2,3.4,0.4v1.8H1.7C0.8,2.3,0,3,0,3.9v12.4C0,17.2,0.8,18,1.7,18h12.6c0.9,0,1.7-0.8,1.7-1.7V3.9
		C16,3,15.2,2.3,14.3,2.3z M14.3,16.1L14.3,16.1c0,0.1-0.1,0.2-0.2,0.2H1.9c-0.1,0-0.2-0.1-0.2-0.2V5.6h12.6V16.1z"/>
	<path d="M3.9,13.5h1.4c0.2,0,0.4-0.2,0.4-0.4v-1.4c0-0.2-0.2-0.4-0.4-0.4H3.9c-0.2,0-0.4,0.2-0.4,0.4v1.4
		C3.4,13.3,3.6,13.5,3.9,13.5z"/>
	<path d="M10.7,10.1h1.4c0.2,0,0.4-0.2,0.4-0.4V8.3c0-0.2-0.2-0.4-0.4-0.4h-1.4c-0.2,0-0.4,0.2-0.4,0.4v1.4
		C10.3,9.9,10.5,10.1,10.7,10.1z"/>
</g>
</svg>
