<svg xmlns="http://www.w3.org/2000/svg" width="27" height="27" fill="none" viewBox="0 0 27 27">
    <path fill="#000" d="M13.5 0C6.042 0 0 6.042 0 13.5S6.042 27 13.5 27 27 20.958 27 13.5 20.958 0 13.5 0zm0 24.387c-6.015 0-10.887-4.872-10.887-10.887 0-6.015 4.872-10.887 10.887-10.887 6.015 0 10.887 4.872 10.887 10.887 0 6.015-4.872 10.887-10.887 10.887zm3.364-5.683l-4.622-3.359c-.168-.125-.266-.32-.266-.528V5.88c0-.36.294-.653.653-.653h1.742c.36 0 .653.294.653.653v7.713l3.636 2.646c.294.212.354.62.142.915l-1.023 1.41c-.213.288-.62.353-.915.141z"/>
</svg>
