<?xml version="1.0" encoding="utf-8"?>
<!-- Generator: Adobe Illustrator 23.0.0, SVG Export Plug-In . SVG Version: 6.00 Build 0)  -->
<svg version="1.1" id="Capa_1" xmlns="http://www.w3.org/2000/svg" xmlns:xlink="http://www.w3.org/1999/xlink" x="0px" y="0px"
	 viewBox="0 0 51.5 45.5" style="enable-background:new 0 0 51.5 45.5;" xml:space="preserve">
<style type="text/css">
	.st0{fill:none;}
</style>
<path class="st0" d="M45.5,43.8c0.5,0,0.9-0.4,0.9-0.9c0-0.5-0.4-0.9-0.9-0.9v0c-0.5,0-0.9,0.4-0.9,0.9
	C44.7,43.4,45.1,43.8,45.5,43.8z"/>
<path class="st0" d="M37,43.8c0.5,0,0.9-0.4,0.9-0.9c0-0.5-0.4-0.9-0.9-0.9v0c-0.5,0-0.9,0.4-0.9,0.9C36.1,43.4,36.5,43.8,37,43.8z"
	/>
<g>
	<circle class="st0" cx="10.3" cy="6" r="4.3"/>
	<path class="st0" d="M5.1,34.5c0,0.1,0,0.1-0.1,0.2l-3.1,7l2.8,1.7l3.8-7.7l0.8-4.1l-3.2-2.5L5.1,34.5z"/>
	<path class="st0" d="M45.5,43.8c0.5,0,0.9-0.4,0.9-0.9c0-0.5-0.4-0.9-0.9-0.9v0c-0.5,0-0.9,0.4-0.9,0.9
		C44.7,43.4,45.1,43.8,45.5,43.8z"/>
	<polygon class="st0" points="31.5,32.7 47.6,32.7 48.2,30.1 30.9,30.1 	"/>
	<path class="st0" d="M37,43.8c0.5,0,0.9-0.4,0.9-0.9c0-0.5-0.4-0.9-0.9-0.9v0c-0.5,0-0.9,0.4-0.9,0.9C36.1,43.4,36.5,43.8,37,43.8z
		"/>
	<polygon class="st0" points="32.5,37 46.6,37 47.2,34.4 31.9,34.4 	"/>
	<g>
		<path class="st0" d="M45.5,43.8c0.5,0,0.9-0.4,0.9-0.9c0-0.5-0.4-0.9-0.9-0.9v0c-0.5,0-0.9,0.4-0.9,0.9
			C44.7,43.4,45.1,43.8,45.5,43.8z"/>
		<rect x="42.8" y="18" class="st0" width="2.6" height="6"/>
		<path class="st0" d="M37,43.8c0.5,0,0.9-0.4,0.9-0.9c0-0.5-0.4-0.9-0.9-0.9v0c-0.5,0-0.9,0.4-0.9,0.9C36.1,43.4,36.5,43.8,37,43.8
			z"/>
		<path class="st0" d="M19.8,19.8h-3.4c-0.5,0-0.9-0.4-0.9-0.9v-1.7c0-2.8-2.3-5.2-5.2-5.2c-2.8,0-5.2,2.3-5.2,5.2V25
			c0,0.8,0.4,1.6,1,2l6.4,5c0.2,0.1,0.3,0.3,0.3,0.5l2.4,11.4h3.4l-2.4-13.5l-3.1-6.3h-0.3c-1.4,0-2.6-1.2-2.6-2.6v-5.2H12v5.2
			c0,0.5,0.4,0.9,0.9,0.9h9.5C22.3,20.9,21.2,19.8,19.8,19.8z"/>
		<path class="st0" d="M5.1,34.5c0,0.1,0,0.1-0.1,0.2l-3.1,7l2.8,1.7l3.8-7.7l0.8-4.1l-3.2-2.5L5.1,34.5z"/>
		<circle class="st0" cx="10.3" cy="6" r="4.3"/>
		<polygon class="st0" points="41.1,15.5 38.5,15.5 38.5,15.5 38.5,24.1 41.1,24.1 		"/>
		<rect x="34.2" y="21.5" class="st0" width="2.6" height="2.6"/>
		<polygon class="st0" points="30.1,26.8 30.5,28.4 48.6,28.4 49,26.8 49.2,25.8 29.8,25.8 		"/>
		<polygon class="st0" points="31.5,32.7 47.6,32.7 48.2,30.1 30.9,30.1 		"/>
		<polygon class="st0" points="32.5,37 46.6,37 47.2,34.4 31.9,34.4 		"/>
		<path d="M49.8,22.3v0.8l-0.2,1h-2.5v-5.9c0-0.5-0.4-0.9-0.9-0.9h-3.4v-1.7c0-0.5-0.4-0.9-0.9-0.9h-4.3c-0.5,0-0.9,0.4-0.9,0.9v5.2
			h-3.4c-0.5,0-0.9,0.4-0.9,0.9v2.4h-0.3h-2.8L29.2,23c-0.1-0.4-0.4-0.7-0.8-0.7h-4.3c0-2.4-1.9-4.3-4.3-4.3h-2.6v-0.9
			c0-2.6-1.5-4.9-3.7-6.1c1.7-1.1,2.8-2.9,2.8-5.1c0-3.3-2.7-6-6-6s-6,2.7-6,6c0,2.1,1.1,4,2.8,5.1c-2.2,1.1-3.7,3.4-3.7,6.1V25
			c0,1.2,0.5,2.2,1.3,3l-1.2,6.1l-3.4,7.6c-0.2,0.4,0,0.9,0.3,1.1l4.3,2.6c0.1,0.1,0.3,0.1,0.4,0.1c0.1,0,0.2,0,0.2,0
			c0.2-0.1,0.4-0.2,0.5-0.4l4.3-8.6c0-0.1,0.1-0.1,0.1-0.2l0.7-3.3l0.3,0.2l2.5,11.7c0.1,0.4,0.4,0.7,0.8,0.7h5.2
			c0.3,0,0.5-0.1,0.7-0.3c0.2-0.2,0.2-0.5,0.2-0.7L18,29.9c0-0.1,0-0.2-0.1-0.2l-2.8-5.6h12.5l3.3,13.9v3.3c0,1.4,1.2,2.6,2.6,2.6h1
			c0.4,1,1.3,1.7,2.4,1.7s2.1-0.7,2.4-1.7h3.8c0.4,1,1.3,1.7,2.4,1.7c1.4,0,2.6-1.2,2.6-2.6c0-1.4-1.2-2.6-2.6-2.6
			c-1.1,0-2.1,0.7-2.4,1.7h-3.8c-0.4-1-1.3-1.7-2.4-1.7s-2.1,0.7-2.4,1.7h-1c-0.5,0-0.9-0.4-0.9-0.9v-2.6h14.6
			c0.4,0,0.7-0.3,0.8-0.7l3.4-14.6c0-0.1,0-0.1,0-0.2v-0.9H49.8z M6,6c0-2.4,1.9-4.3,4.3-4.3c2.4,0,4.3,1.9,4.3,4.3
			c0,2.4-1.9,4.3-4.3,4.3C7.9,10.3,6,8.4,6,6z M8.6,35.8l-3.8,7.7L2,41.8l3.1-7c0-0.1,0-0.1,0.1-0.2l1.1-5.3l3.2,2.5L8.6,35.8z
			 M12.9,22.3c-0.5,0-0.9-0.4-0.9-0.9v-5.2h-1.7v5.2c0,1.4,1.2,2.6,2.6,2.6h0.3l3.1,6.3l2.4,13.5h-3.4l-2.4-11.4
			c0-0.2-0.2-0.4-0.3-0.5l-6.4-5c-0.6-0.5-1-1.2-1-2v-7.8c0-2.8,2.3-5.2,5.2-5.2c2.8,0,5.2,2.3,5.2,5.2v1.7c0,0.5,0.4,0.9,0.9,0.9
			h3.4c1.4,0,2.6,1.2,2.6,2.6H12.9z M45.5,42.1L45.5,42.1c0.5,0,0.9,0.4,0.9,0.9c0,0.5-0.4,0.9-0.9,0.9c-0.5,0-0.9-0.4-0.9-0.9
			C44.7,42.5,45.1,42.1,45.5,42.1z M37,42.1L37,42.1c0.5,0,0.9,0.4,0.9,0.9c0,0.5-0.4,0.9-0.9,0.9s-0.9-0.4-0.9-0.9
			C36.1,42.5,36.5,42.1,37,42.1z M42.8,18h2.6v6h-2.6V18z M38.5,15.5L38.5,15.5l2.6,0v8.6h-2.6V15.5z M34.2,21.5h2.6v2.6h-2.6V21.5z
			 M46.6,37H32.5l-0.6-2.6h15.3L46.6,37z M47.6,32.7H31.5l-0.6-2.6h17.3L47.6,32.7z M49,26.8l-0.4,1.6H30.5l-0.4-1.6l-0.2-1h19.4
			L49,26.8z"/>
	</g>
</g>
</svg>
