<svg xmlns="http://www.w3.org/2000/svg" width="18" height="20" fill="none" viewBox="0 0 18 20">
    <path fill="#000" d="M10.469 16.25h.937c.125 0 .244-.05.332-.137.088-.088.137-.207.137-.332V7.344c0-.125-.05-.244-.137-.332-.088-.088-.207-.137-.332-.137h-.937c-.125 0-.244.05-.332.137-.088.088-.137.207-.137.332v8.437c0 .125.05.244.137.332.088.088.207.137.332.137zm6.406-13.125h-3.22L12.329.91c-.167-.278-.403-.507-.685-.667-.282-.16-.6-.243-.924-.243H6.781c-.324 0-.642.084-.924.243-.282.16-.517.39-.684.667L3.844 3.125H.625c-.166 0-.325.066-.442.183C.066 3.425 0 3.584 0 3.75v.625c0 .166.066.325.183.442C.3 4.934.46 5 .625 5h.625v13.125c0 .497.198.974.55 1.326.35.351.828.549 1.325.549h11.25c.497 0 .974-.198 1.326-.55.351-.35.549-.828.549-1.325V5h.625c.166 0 .325-.066.442-.183.117-.117.183-.276.183-.442V3.75c0-.166-.066-.325-.183-.442-.117-.117-.276-.183-.442-.183zM6.713 1.989c.02-.035.05-.064.085-.084.036-.02.075-.03.116-.03h3.672c.04 0 .08.01.115.03.036.02.065.049.086.084l.682 1.136H6.031l.682-1.136zm7.662 16.136H3.125V5h11.25v13.125zM6.094 16.25h.937c.125 0 .244-.05.332-.137.088-.088.137-.207.137-.332V7.344c0-.125-.05-.244-.137-.332-.088-.088-.207-.137-.332-.137h-.937c-.125 0-.244.05-.332.137-.088.088-.137.207-.137.332v8.437c0 .125.05.244.137.332.088.088.207.137.332.137z"/>
</svg>
