<svg xmlns="http://www.w3.org/2000/svg" width="20" height="16" fill="none" viewBox="0 0 20 16">
    <path fill="#000" d="M18.333 0H1.667C.747 0 0 .768 0 1.714v12.572C0 15.232.747 16 1.667 16h16.666c.92 0 1.667-.768 1.667-1.714V1.714C20 .768 19.253 0 18.333 0zm0 14.286H1.667V1.714h16.666v12.572zM7.223 8c1.225 0 2.221-1.025 2.221-2.286 0-1.26-.996-2.285-2.222-2.285C5.997 3.429 5 4.454 5 5.714 5 6.975 5.997 8 7.222 8zM4.11 12.571h6.222c.43 0 .778-.307.778-.685V11.2c0-1.136-1.045-2.057-2.333-2.057-.375 0-.65.286-1.556.286-.934 0-1.16-.286-1.555-.286-1.289 0-2.334.921-2.334 2.057v.686c0 .378.348.685.778.685zm8.389-2.285h3.889c.153 0 .278-.129.278-.286v-.571c0-.158-.125-.286-.278-.286H12.5c-.153 0-.278.128-.278.286V10c0 .157.125.286.278.286zM12.5 8h3.889c.153 0 .278-.129.278-.286v-.571c0-.157-.125-.286-.278-.286H12.5c-.153 0-.278.129-.278.286v.571c0 .157.125.286.278.286zm0-2.286h3.889c.153 0 .278-.128.278-.285v-.572c0-.157-.125-.286-.278-.286H12.5c-.153 0-.278.129-.278.286v.572c0 .157.125.285.278.285z"/>
</svg>
