<svg xmlns="http://www.w3.org/2000/svg" width="22" height="20" fill="none" viewBox="0 0 22 20">
    <path fill="#000" d="M15.366 13.174l1.222-1.222c.191-.19.523-.057.523.218v5.553c0 1.012-.82 1.833-1.833 1.833H1.833C.821 19.556 0 18.734 0 17.722V4.28c0-1.012.821-1.833 1.833-1.833H12.28c.271 0 .409.328.218.523l-1.223 1.222c-.057.057-.133.088-.218.088H1.833v13.442h13.445v-4.334c0-.08.03-.156.088-.214zm5.981-7.706l-10.03 10.028-3.453.382c-1 .11-1.852-.733-1.741-1.741l.382-3.453L16.535.656c.874-.875 2.288-.875 3.159 0l1.65 1.65c.874.874.874 2.291.003 3.162zm-3.773 1.18l-2.22-2.219-7.096 7.1-.279 2.493 2.494-.279 7.1-7.095zm2.475-3.044l-1.65-1.65c-.157-.156-.413-.156-.566 0l-1.18 1.18 2.22 2.22 1.18-1.18c.152-.161.152-.413-.004-.57z"/>
</svg>
