<svg xmlns="http://www.w3.org/2000/svg" width="14" height="13" fill="none" viewBox="0 0 14 13">
    <path fill="#000" d="M12.534.884c-1.58-1.33-4.022-1.13-5.534.41C5.488-.246 3.046-.448 1.466.884c-2.057 1.73-1.756 4.553-.29 6.048l4.796 4.887c.273.278.64.434 1.028.434.391 0 .755-.153 1.028-.432l4.796-4.886c1.463-1.496 1.77-4.318-.29-6.051zM11.89 6.01l-4.796 4.886c-.066.066-.12.066-.186 0L2.111 6.011c-.998-1.017-1.2-2.942.2-4.12 1.063-.895 2.704-.761 3.732.286L7 3.153l.957-.976c1.034-1.053 2.674-1.181 3.732-.29 1.398 1.179 1.19 3.115.2 4.124z"/>
</svg>
