<svg id="Capa_1" data-name="Capa 1" xmlns="http://www.w3.org/2000/svg" viewBox="0 0 92.6 94.6"><defs><style>.cls-1{fill:#e2002f;}</style></defs><title>logo_red</title><path class="cls-1" d="M51.2,85.5a6,6,0,0,1-6,6H8.9a6,6,0,0,1-6-6V75.6H51.3v9.9ZM2.9,9a6,6,0,0,1,6-6H45.2a6,6,0,0,1,6,6v.3H2.9ZM51.2,65.4v6.7H2.9V12.9H51.3v9.6h3.4V7.3A7.34,7.34,0,0,0,47.4,0H7.4A7.36,7.36,0,0,0,0,7.3v80a7.34,7.34,0,0,0,7.3,7.3h40a7.34,7.34,0,0,0,7.3-7.3V65.4Z" transform="translate(0 0)"/><path class="cls-1" d="M35.3,45.9l.9-18.6H53.8v6.1H42l-.3,6.4A7.57,7.57,0,0,1,47,37.7c7.1,0,8.3,6,8.3,11.8,0,7.4-2.5,12-10.5,12-5.9,0-8.6-2.7-9.7-8.3V50.6h7.2c.2,1.6-.2,4.9,2.4,5.2,3,.3,3-3.9,3-5.6,0-2.1.3-6.8-3-6.8A2.52,2.52,0,0,0,42,45.9Z" transform="translate(0 0)"/><polygon class="cls-1" points="58.3 59.5 58.3 40.3 62.8 40.3 62.8 55.6 68.3 55.6 68.3 59.4 58.3 59.4 58.3 59.5"/><path class="cls-1" d="M76.4,52.6c-.8.4-1.5.7-2,1a2.13,2.13,0,0,0-.9,1.8A1.37,1.37,0,0,0,75,56.9c1.2,0,1.5-1.3,1.5-2.2V52.6Zm.1,5.6A4.27,4.27,0,0,1,73,59.9a3.54,3.54,0,0,1-3.7-3.8,4.63,4.63,0,0,1,3.6-4.9c1.8-.6,3.5-.8,3.5-2.3a1.37,1.37,0,0,0-1.3-1.5c-1.5,0-1.5,1-1.6,2.2H69.4a4.23,4.23,0,0,1,1.5-3.8,6.31,6.31,0,0,1,4-1.1c4,0,5.5,1.2,5.5,4.4v8.8a9,9,0,0,0,.3,1.6h-4Z" transform="translate(0 0)"/><path class="cls-1" d="M88.5,49.4c-.1-.5-.1-1-.2-1.4a1.06,1.06,0,0,0-1.1-.6c-.8,0-1.4.4-1.4,1.2s.6,1.2,1.3,1.5c2.6,1.2,5.5,1.9,5.5,5.3,0,3.2-2.4,4.6-5.4,4.6-3.2,0-5.5-1.4-5.3-4.8h3.9a2.7,2.7,0,0,0,.3,1.5,1.27,1.27,0,0,0,1.2.7c.9,0,1.5-.4,1.5-1.4a1.61,1.61,0,0,0-.5-1.1c-1.6-.9-3.9-1.5-5.2-2.9a3.78,3.78,0,0,1-1-2.7c0-3.1,2.5-4.4,5.3-4.4,3,0,5.3,1.5,5.2,4.7H88.5Z" transform="translate(0 0)"/></svg>