<?xml version="1.0" encoding="utf-8"?>
<!-- Generator: Adobe Illustrator 23.0.0, SVG Export Plug-In . SVG Version: 6.00 Build 0)  -->
<svg version="1.1" id="Capa_1" xmlns="http://www.w3.org/2000/svg" xmlns:xlink="http://www.w3.org/1999/xlink" x="0px" y="0px"
	 viewBox="0 0 17 20" style="enable-background:new 0 0 17 20;" xml:space="preserve">
<g>
	<path d="M12.6,15.3c-0.4,0-0.8,0.3-0.8,0.8v2c0,0.2-0.2,0.4-0.4,0.4H2c-0.2,0-0.4-0.2-0.4-0.4V1.9c0-0.2,0.2-0.4,0.4-0.4h9.5
		c0.2,0,0.4,0.2,0.4,0.4v2c0,0.4,0.4,0.8,0.8,0.8v0c0.4,0,0.8-0.3,0.8-0.8v-2c0-1.1-0.9-1.9-2-1.9H2C0.9,0,0,0.9,0,1.9v16.1
		C0,19.1,0.9,20,2,20h9.5c1.1,0,2-0.9,2-1.9v-2C13.4,15.6,13.1,15.3,12.6,15.3z"/>
	<path d="M16.8,9.4L16.8,9.4l-4.2-4.1c-0.3-0.3-0.8-0.3-1.1,0s-0.3,0.8,0,1.1l2.8,2.7H6.7c-0.4,0-0.8,0.4-0.8,0.8
		c0,0.4,0.4,0.8,0.8,0.8h7.6l-2.8,2.7c-0.3,0.3-0.3,0.8,0,1.1c0.3,0.3,0.8,0.3,1.1,0l4.2-4.1C17.1,10.3,17.1,9.7,16.8,9.4z"/>
</g>
</svg>
