<svg xmlns="http://www.w3.org/2000/svg" width="23" height="20" fill="none" viewBox="0 0 23 20">
    <path fill="#000" d="M.821 3.673H22.18c.453 0 .821-.365.821-.816V.817C23 .364 22.632 0 22.179 0H.82C.368 0 0 .365 0 .816v2.041c0 .451.368.816.821.816zm0 8.164H22.18c.453 0 .821-.366.821-.817V8.98c0-.451-.368-.817-.821-.817H.82C.368 8.163 0 8.53 0 8.98v2.04c0 .451.368.817.821.817zm0 8.163H22.18c.453 0 .821-.366.821-.816v-2.041c0-.451-.368-.817-.821-.817H.82c-.453 0-.821.366-.821.817v2.04c0 .451.368.817.821.817z"/>
</svg>
