<svg xmlns="http://www.w3.org/2000/svg" width="16" height="20" fill="none" viewBox="0 0 16 20">
    <path fill="#000" d="M13.594 7.344H5.31V4.132c0-1.417 1.192-2.57 2.656-2.57 1.465 0 2.657 1.153 2.657 2.57v1.493h1.562V4.132C12.186 1.853 10.293 0 7.967 0 5.641 0 3.75 1.853 3.75 4.132v3.212H2.344C1.05 7.344 0 8.395 0 9.687v7.97C0 18.948 1.051 20 2.344 20h11.25c1.292 0 2.344-1.051 2.344-2.344V9.688c0-1.293-1.052-2.344-2.344-2.344zm.781 10.312c0 .431-.35.782-.781.782H2.344c-.431 0-.781-.351-.781-.782V9.688c0-.431.35-.782.78-.782h11.25c.431 0 .782.35.782.781v7.97z"/>
    <path fill="#000" d="M7.969 11.172c-.798 0-1.446.647-1.446 1.445 0 .51.264.958.663 1.215v1.715c0 .431.35.781.781.781.432 0 .782-.35.782-.781v-1.713c.4-.257.665-.706.665-1.217 0-.798-.647-1.445-1.445-1.445z"/>
</svg>
