<svg xmlns="http://www.w3.org/2000/svg" width="43" height="32" fill="none" viewBox="0 0 43 32">
    <path fill="#E20030" d="M39.532 29.823h-2.774V15.952c.552-.001 1.08-.22 1.47-.61.39-.39.61-.92.61-1.471V6.935c0-.138-.041-.273-.118-.388L34.503.305c-.063-.094-.149-.17-.249-.224-.1-.053-.212-.081-.325-.081H9.07c-.113 0-.225.028-.325.081-.1.053-.186.13-.25.224L4.28 6.547c-.077.115-.118.25-.117.388H4.16v6.936c0 .552.22 1.08.61 1.47.39.39.92.61 1.47.61v13.872H.695c-.184 0-.36.073-.49.203s-.204.306-.204.49.073.36.203.49.307.204.49.204h38.84c.183 0 .36-.073.49-.204.13-.13.203-.306.203-.49s-.073-.36-.203-.49-.307-.203-.49-.203zm-2.08-15.952c0 .184-.074.36-.204.49s-.306.203-.49.204h-1.387c-.184 0-.36-.074-.49-.204s-.203-.306-.204-.49v-3.468h2.775v3.468zm-6.936-3.468h2.774v3.468c0 .184-.073.36-.203.49s-.306.203-.49.204H31.21c-.184 0-.36-.074-.49-.204s-.204-.306-.204-.49v-3.468zM5.548 9.016V7.63h31.904v1.387H5.548zm20.807 1.387h2.774v3.468c0 .184-.073.36-.203.49s-.307.203-.49.204h-1.388c-.183 0-.36-.074-.49-.204s-.203-.306-.203-.49v-3.468zm-4.162 0h2.775v3.468c0 .184-.074.36-.204.49s-.306.203-.49.204h-1.387c-.184 0-.36-.074-.49-.204s-.203-.306-.203-.49v-3.468zm-4.16 0h2.773v3.468c0 .184-.073.36-.203.49s-.306.203-.49.204h-1.387c-.184 0-.36-.074-.49-.204s-.204-.306-.204-.49v-3.468zm-4.162 0h2.774v3.468c0 .184-.073.36-.203.49s-.306.203-.49.204h-1.387c-.184 0-.36-.074-.49-.204s-.204-.306-.204-.49v-3.468zm-4.161 0h2.774v3.468c0 .184-.073.36-.204.49-.13.13-.306.203-.49.204h-1.387c-.184 0-.36-.074-.49-.204s-.203-.306-.203-.49v-3.468zm-.27-9.016h24.12l3.28 4.855H6.16l3.28-4.855zM5.548 13.871v-3.468h2.775v3.468c0 .184-.074.36-.204.49s-.306.203-.49.204H6.242c-.184 0-.36-.074-.49-.204s-.203-.306-.204-.49zm19.42 15.952V19.419h6.935v10.404h-6.935zm8.322 0V18.726c0-.184-.073-.36-.203-.49s-.306-.204-.49-.204h-8.323c-.184 0-.36.073-.49.203s-.203.307-.203.49v11.098H7.629V15.952c.512 0 1.006-.19 1.387-.532.38.343.875.532 1.387.532h1.387c.513 0 1.007-.19 1.387-.532.381.343.875.532 1.388.532h1.387c.512 0 1.006-.19 1.387-.532.38.343.875.532 1.387.532h1.387c.512 0 1.006-.19 1.387-.532.38.343.875.532 1.387.532h1.387c.512 0 1.006-.19 1.387-.532.381.343.875.532 1.387.532h1.388c.512 0 1.006-.19 1.387-.532.38.343.875.532 1.387.532h1.387c.512 0 1.006-.19 1.387-.532.38.343.875.532 1.387.532v13.87h-2.08zM42.306 29.823h-.693c-.184 0-.36.073-.49.203s-.204.306-.204.49.073.36.204.49c.13.13.306.204.49.204h.694c.183 0 .36-.073.49-.204.13-.13.203-.306.203-.49s-.073-.36-.203-.49-.307-.203-.49-.203z"/>
    <path fill="#E20030" d="M22.194 18.032h-11.79c-.185 0-.361.073-.491.203s-.203.307-.203.49v5.55c0 .183.073.36.203.49s.306.203.49.203h11.79c.184 0 .36-.073.491-.203.13-.13.203-.307.203-.49v-5.55c0-.183-.073-.36-.203-.49s-.306-.203-.49-.203zm-.694 5.549H11.097v-4.162H21.5v4.162z"/>
</svg>
