<svg xmlns="http://www.w3.org/2000/svg" width="16" height="18" fill="none" viewBox="0 0 16 18">
    <path fill="#000" d="M11.2 10.688c-1.025 0-1.518.562-3.2.562-1.682 0-2.171-.563-3.2-.563-2.65 0-4.8 2.117-4.8 4.726v.9C0 17.244.768 18 1.714 18h12.572c.946 0 1.714-.756 1.714-1.688v-.9c0-2.608-2.15-4.725-4.8-4.725zm3.086 5.624H1.714v-.9c0-1.673 1.386-3.037 3.086-3.037.521 0 1.368.563 3.2.563 1.846 0 2.675-.563 3.2-.563 1.7 0 3.086 1.364 3.086 3.037v.9zM8 10.125c2.84 0 5.143-2.268 5.143-5.063C13.143 2.268 10.839 0 8 0 5.16 0 2.857 2.268 2.857 5.063c0 2.794 2.304 5.062 5.143 5.062zm0-8.438c1.89 0 3.429 1.516 3.429 3.375 0 1.86-1.54 3.375-3.429 3.375-1.89 0-3.429-1.515-3.429-3.374 0-1.86 1.54-3.375 3.429-3.375z"/>
</svg>
