<svg xmlns="http://www.w3.org/2000/svg" width="24" height="16" fill="none" viewBox="0 0 24 16">
    <path fill="#000" d="M12 3.281c-.442.007-.88.076-1.302.205.195.338.3.72.302 1.108 0 .301-.06.6-.178.879-.117.278-.289.532-.505.745-.217.213-.474.382-.757.498-.284.115-.587.175-.893.175-.395-.003-.782-.105-1.125-.297-.271.924-.24 1.908.09 2.813.33.906.94 1.686 1.744 2.231.805.545 1.764.827 2.74.806.977-.021 1.922-.345 2.702-.924.78-.58 1.355-1.385 1.643-2.304.289-.919.276-1.904-.036-2.815-.311-.911-.907-1.703-1.7-2.263-.795-.56-1.748-.86-2.725-.857zm11.855 3.995C21.595 2.936 17.122 0 12 0 6.878 0 2.403 2.938.145 7.277.05 7.462 0 7.667 0 7.875c0 .208.05.413.145.599C2.405 12.814 6.878 15.75 12 15.75c5.122 0 9.597-2.938 11.855-7.277.095-.185.145-.39.145-.598 0-.208-.05-.413-.145-.599zM12 13.781c-4.11 0-7.879-2.256-9.914-5.906C4.121 4.225 7.89 1.969 12 1.969c4.11 0 7.879 2.256 9.914 5.906-2.035 3.65-5.803 5.906-9.914 5.906z"/>
</svg>
