<?xml version="1.0" encoding="utf-8"?>
<!-- Generator: Adobe Illustrator 23.0.0, SVG Export Plug-In . SVG Version: 6.00 Build 0)  -->
<svg version="1.1" id="Capa_1" xmlns="http://www.w3.org/2000/svg" xmlns:xlink="http://www.w3.org/1999/xlink" x="0px" y="0px"
	 viewBox="0 0 23 23" style="enable-background:new 0 0 23 23;" xml:space="preserve">
<g>
	<path d="M22,23c-0.3,0-0.5-0.1-0.7-0.3l-4.2-4.2c-1.7,1.1-3.6,1.6-5.5,1.7c-7.2,0-11.2-7.9-11.4-8.2C0,11.7,0,11.3,0.1,11
		c1.1-2,2.5-3.8,4.2-5.3l-4-4c-0.4-0.4-0.4-1,0-1.4s1-0.4,1.4,0l4.8,4.8c0,0,0,0,0,0l3.6,3.6c0,0,0,0,0,0l4,4c0,0,0,0,0,0l3.6,3.6
		c0,0,0,0,0,0l4.8,4.8c0.4,0.4,0.4,1,0,1.4C22.5,22.9,22.3,23,22,23z M2.1,11.5c0.9,1.6,4.3,6.6,9.4,6.6c1.4,0,2.8-0.4,4.1-1.1
		l-2.1-2.1c-0.9,0.5-2,0.7-3,0.5C9.1,15,8,13.9,7.7,12.5c-0.3-1-0.1-2.1,0.5-3L5.8,7.2C4.3,8.4,3.1,9.9,2.1,11.5z M9.6,11.1
		c-0.1,0.3-0.1,0.7,0,1c0.2,0.7,0.7,1.2,1.3,1.3c0.3,0.1,0.7,0.1,1,0L9.6,11.1z M19.9,15.5c-0.2,0-0.5-0.1-0.6-0.2
		c-0.4-0.4-0.5-1-0.1-1.4c0.6-0.7,1.2-1.6,1.7-2.4c-0.9-1.6-4.3-6.6-9.4-6.6c-0.6,0-1.2,0.1-1.8,0.2C9.2,5.2,8.6,4.9,8.5,4.3
		C8.4,3.8,8.7,3.2,9.3,3.1c0.7-0.2,1.5-0.3,2.2-0.3c7.2,0,11.2,7.9,11.4,8.2c0.1,0.3,0.1,0.6,0,0.9c-0.6,1.1-1.3,2.2-2.2,3.2
		C20.5,15.4,20.2,15.5,19.9,15.5z"/>
</g>
</svg>
