<svg xmlns="http://www.w3.org/2000/svg" width="23" height="23" fill="none" viewBox="0 0 23 23">
    <path stroke="#000" stroke-linecap="round" stroke-linejoin="round" stroke-width="2" d="M17.17 17.17c-1.632 1.244-3.619 1.933-5.67 1.966C4.818 19.136 1 11.5 1 11.5c1.187-2.213 2.834-4.146 4.83-5.67m3.665-1.737c.658-.154 1.33-.23 2.005-.23C18.182 3.864 22 11.5 22 11.5c-.58 1.084-1.27 2.104-2.062 3.045m-6.414-1.021c-.714.766-1.79 1.081-2.804.822-1.015-.26-1.807-1.051-2.066-2.066-.26-1.015.056-2.09.822-2.804M1 1l21 21"/>
</svg>
